<svg xmlns="http://www.w3.org/2000/svg" width="24.051" height="19.54" viewBox="0 0 24.051 19.54">
    <path id="Контур_13" data-name="Контур 13" d="M457.6-103.959a1.576,1.576,0,0,0,.909-.474l2.143-2.6a2.059,2.059,0,0,0,.583-1.312,2.664,2.664,0,0,0-.76-1.366l-7.688-9.767s-1.279-1.972-2.582-1.972-2.632,1.972-2.632,1.972l-7.58,9.734a2.983,2.983,0,0,0-.8,1.339,1.54,1.54,0,0,0,.511,1.142l2.083,2.692a1.215,1.215,0,0,0,.717.615c.47.1.311.132,1.162-.2a19.836,19.836,0,0,1,6.536-1.386,18.815,18.815,0,0,1,6.188,1.312C457.163-103.954,457.071-103.909,457.6-103.959Z" transform="translate(-438.188 122.453)" fill="none" stroke="#fff" stroke-width="2"/>
    <path id="Контур_14" data-name="Контур 14" d="M442.043-112.5a22.341,22.341,0,0,1,8.582,2.444,25.134,25.134,0,0,1,6.8,6.282" transform="translate(-438.188 122.453)" fill="none" stroke="#fff" stroke-width="2"/>
</svg>
